<?xml version="1.0" standalone="no"?>
<!DOCTYPE svg PUBLIC "-//W3C//DTD SVG 20010904//EN"
 "http://www.w3.org/TR/2001/REC-SVG-20010904/DTD/svg10.dtd">
<svg version="1.0" xmlns="http://www.w3.org/2000/svg"
 width="70.000000pt" height="70.000000pt" viewBox="0 0 70.000000 70.000000"
 preserveAspectRatio="xMidYMid meet">
<metadata>
Created by potrace 1.14, written by Peter Selinger 2001-2017
</metadata>
<g transform="translate(0.000000,70.000000) scale(0.100000,-0.100000)"
fill="#000000" stroke="none">
<path d="M80 440 l0 -220 25 0 c18 0 25 -5 25 -20 0 -13 7 -20 20 -20 13 0 20
-7 20 -20 0 -13 7 -20 20 -20 13 0 20 -7 20 -20 0 -19 7 -20 130 -20 123 0
130 1 130 20 0 15 7 20 25 20 18 0 25 5 25 20 0 13 7 20 20 20 13 0 20 7 20
20 0 13 7 20 20 20 19 0 20 7 20 220 l0 220 -40 0 c-36 0 -40 -2 -40 -25 0
-23 -4 -25 -45 -25 -38 0 -45 -3 -45 -20 0 -18 -7 -20 -85 -20 -78 0 -85 2
-85 20 0 17 -7 20 -45 20 -41 0 -45 2 -45 25 0 23 -4 25 -45 25 l-45 0 0 -220z"/>
</g>
</svg>
